<svg id="Layer_1" data-name="Layer 1" xmlns="http://www.w3.org/2000/svg" xmlns:xlink="http://www.w3.org/1999/xlink" viewBox="0 0 563.24 842.96"><defs><style>.cls-1{fill:url(#linear-gradient);}.cls-2{fill:url(#linear-gradient-2);}.cls-3{fill:url(#linear-gradient-3);}.cls-4{fill:url(#linear-gradient-4);}.cls-5{fill:url(#linear-gradient-5);}.cls-6{fill:url(#linear-gradient-6);}</style><linearGradient id="linear-gradient" x1="492.31" y1="339.12" x2="496.5" y2="339.12" gradientUnits="userSpaceOnUse"><stop offset="0" stop-color="#9eba37"/><stop offset="1" stop-color="#006f3a"/></linearGradient><linearGradient id="linear-gradient-2" x1="323.79" y1="634.53" x2="578.34" y2="487.57" gradientUnits="userSpaceOnUse"><stop offset="0" stop-color="#6c0"/><stop offset="0.24" stop-color="#47af13"/><stop offset="0.56" stop-color="#248e28"/><stop offset="0.83" stop-color="#0e7935"/><stop offset="1" stop-color="#06723a"/></linearGradient><linearGradient id="linear-gradient-3" x1="286.76" y1="457.56" x2="512.47" y2="231.86" gradientUnits="userSpaceOnUse"><stop offset="0" stop-color="#6c0"/><stop offset="0.09" stop-color="#5bc107"/><stop offset="0.5" stop-color="#2d9623"/><stop offset="0.82" stop-color="#117c34"/><stop offset="1" stop-color="#06723a"/></linearGradient><linearGradient id="linear-gradient-4" x1="239.43" y1="201.02" x2="-15.07" y2="379.87" xlink:href="#linear-gradient-2"/><linearGradient id="linear-gradient-5" x1="268.04" y1="378.39" x2="68.42" y2="621.35" xlink:href="#linear-gradient-3"/><linearGradient id="linear-gradient-6" x1="279.53" y1="421.48" x2="283.71" y2="421.48" xlink:href="#linear-gradient"/></defs><path class="cls-1" d="M496.5,334.93q-2.1,4.2-4.19,8.38"/><path class="cls-2" d="M541.1,334.5c7.25-5,14.5-10.14,21.76-15.24q-146.53,261.81-293,523.68l62-362.25Q436.45,407.57,541.1,334.5Z"/><path class="cls-3" d="M562.86,319.26c-7.26,5.1-14.51,10.21-21.76,15.24q-104.64,73-209.29,146.19-43.71-59.26-87.35-118.62Z"/><path class="cls-4" d="M14.85,521.81C10,525.22,5.23,528.7.41,532.11Q146.84,266,293.39,0q-31,184-61.93,368.11Z"/><path class="cls-5" d="M.41,532.11c4.82-3.41,9.63-6.89,14.44-10.3L231.46,368.09q43.6,60.23,87.35,120.52Z"/><path class="cls-6" d="M283.71,417.29l-4.18,8.38"/></svg>