<svg id="Layer_1" data-name="Layer 1" xmlns="http://www.w3.org/2000/svg" viewBox="0 0 563.24 842.96"><defs><style>.cls-1{fill:#fff;}</style></defs><path class="cls-1" d="M496.5,334.93q-2.1,4.2-4.19,8.38"/><path class="cls-1" d="M541.1,334.5c7.25-5,14.5-10.14,21.76-15.24q-146.53,261.81-293,523.68l62-362.25Q436.45,407.57,541.1,334.5Z"/><path class="cls-1" d="M562.86,319.26c-7.26,5.1-14.51,10.21-21.76,15.24q-104.64,73-209.29,146.19-43.71-59.26-87.35-118.62Z"/><path class="cls-1" d="M14.85,521.81C10,525.22,5.23,528.7.41,532.11Q146.84,266,293.39,0q-31,184-61.93,368.11Z"/><path class="cls-1" d="M.41,532.11c4.82-3.41,9.63-6.89,14.44-10.3L231.46,368.09q43.6,60.23,87.35,120.52Z"/><path class="cls-1" d="M283.71,417.29l-4.18,8.38"/></svg>