<svg id="Layer_1" data-name="Layer 1" xmlns="http://www.w3.org/2000/svg" viewBox="0 0 1213 287"><defs><style>.cls-1,.cls-2,.cls-4{fill:#fff;}.cls-1,.cls-3,.cls-4{stroke:#fff;stroke-miterlimit:10;}.cls-3{fill:none;}.cls-4{stroke-width:6.92px;}</style></defs><text/><path class="cls-1" d="M170,4.89h89.88c6.31,0,11.47,5.4,11.47,12,0,6.8-5.16,12.21-11.47,12.21H170.24c-6.89,0-11.86-5.21-11.86-12.21A11.81,11.81,0,0,1,170,4.89ZM158.38,138.62V85c0-7.21,5-12.41,11.86-12.41h64.44c6.31,0,11.47,5.4,11.47,12.21,0,6.6-5.16,12-11.47,12H181.52v29.63h78.4c6.31,0,11.47,5.41,11.47,12.21,0,6.61-5.16,12-11.47,12H170A11.82,11.82,0,0,1,158.38,138.62Z"/><path class="cls-1" d="M302,77.36c0-41.24,31.94-76.28,74.39-76.28a73.41,73.41,0,0,1,41.49,12.81,12.57,12.57,0,0,1,3.25,16.82c-3.63,5.81-11.28,7-16.06,3.41a50.41,50.41,0,0,0-28.68-9c-27.92,0-51.44,23.22-51.44,52.25,0,28.43,22.95,52.25,51.44,52.25a49.7,49.7,0,0,0,29.25-9.4,11.27,11.27,0,0,1,16.07,3.2,12.36,12.36,0,0,1-3.06,16.82,71.7,71.7,0,0,1-42.26,13.61C336,153.84,302,120.81,302,77.36Z"/><path class="cls-1" d="M454.38,77.36c0-42.44,33.85-76.48,74.39-76.48,40.73,0,74.38,33.84,74.38,76.48,0,42.85-33.46,76.48-74.38,76.48C488,153.84,454.38,120,454.38,77.36Zm74.39,52.25c28.11,0,51.24-23,51.24-52.25s-23.33-52.25-51.24-52.25-51.25,23-51.25,52.25S500.66,129.61,528.77,129.61Z"/><path class="cls-1" d="M649.23,4.89H739.1c6.31,0,11.48,5.4,11.48,12,0,6.8-5.17,12.21-11.48,12.21H649.42c-6.88,0-11.85-5.21-11.85-12.21A11.81,11.81,0,0,1,649.23,4.89ZM637.57,138.62V85c0-7.21,5-12.41,11.85-12.41h64.44c6.31,0,11.48,5.4,11.48,12.21,0,6.6-5.17,12-11.48,12H660.7v41.84c0,6.61-5.16,12-11.47,12A11.82,11.82,0,0,1,637.57,138.62Z"/><path class="cls-1" d="M785,95V16.7c0-6.61,5.16-12,11.47-12a12,12,0,0,1,11.67,12V94.78c0,11,5.54,34.83,34.8,34.83,27.54,0,34-21.82,34-34.63V16.7a12,12,0,0,1,11.66-12c6.31,0,11.48,5.41,11.48,12V95c0,27.63-18.17,58.86-57.18,58.86C800.29,153.84,785,118.6,785,95Z"/><path class="cls-1" d="M951.92,4.89h89.87c6.31,0,11.48,5.4,11.48,12,0,6.8-5.17,12.21-11.48,12.21H952.11c-6.88,0-11.86-5.21-11.86-12.21A11.82,11.82,0,0,1,951.92,4.89ZM940.25,138.62V85c0-7.21,5-12.41,11.86-12.41h64.44c6.31,0,11.48,5.4,11.48,12.21,0,6.6-5.17,12-11.48,12H963.39v29.63h78.4c6.31,0,11.48,5.41,11.48,12.21,0,6.61-5.17,12-11.48,12H951.92A11.83,11.83,0,0,1,940.25,138.62Z"/><path class="cls-1" d="M1093.42,138.62V16.9c0-6.61,5.16-12,11.47-12a11.81,11.81,0,0,1,11.66,12V126.41h78.21a12.12,12.12,0,0,1,0,24.23h-89.87C1098.58,150.64,1093.42,145.23,1093.42,138.62Z"/><path class="cls-1" d="M26.41,282.82V246.43H6.93c-2.6,0-4.73-1.8-4.73-4.06s2.13-4,4.73-4H55.34c2.68,0,4.81,1.79,4.81,4s-2.13,4.06-4.81,4.06H35.94v36.39c0,2.2-2.12,4-4.8,4S26.41,285,26.41,282.82Z"/><path class="cls-1" d="M75.92,282.82V242.37c0-2.2,2.13-4,4.81-4s4.73,1.79,4.73,4v18.5H113v-18.5c0-2.2,2.13-4,4.81-4s4.73,1.79,4.73,4v40.45c0,2.2-2.13,4-4.73,4s-4.81-1.8-4.81-4v-13.9H85.46v13.9c0,2.2-2.13,4-4.73,4S75.92,285,75.92,282.82Z"/><path class="cls-1" d="M145.46,238.38h37c2.6,0,4.73,1.79,4.73,4s-2.13,4.06-4.73,4.06h-37c-2.84,0-4.89-1.73-4.89-4.06S142.78,238.38,145.46,238.38Zm-4.81,44.44V265c0-2.39,2-4.12,4.89-4.12H172.1c2.6,0,4.73,1.79,4.73,4.06s-2.13,4-4.73,4H150.19v9.84h32.32c2.6,0,4.73,1.8,4.73,4.06s-2.13,4-4.73,4h-37C142.78,286.82,140.65,285,140.65,282.82Z"/><path class="cls-1" d="M239.35,238.38h37.06c2.6,0,4.73,1.79,4.73,4s-2.13,4.06-4.73,4.06h-37c-2.84,0-4.89-1.73-4.89-4.06S236.67,238.38,239.35,238.38Zm-4.81,44.44V265c0-2.39,2.05-4.12,4.89-4.12H266c2.6,0,4.73,1.79,4.73,4.06s-2.13,4-4.73,4H244.08v13.9c0,2.2-2.12,4-4.73,4S234.54,285,234.54,282.82Z"/><path class="cls-1" d="M296.91,268.32v-26c0-2.19,2.12-4,4.73-4s4.81,1.8,4.81,4v25.95c0,3.66,2.28,11.58,14.34,11.58,11.36,0,14-7.25,14-11.51v-26c0-2.19,2.2-4,4.81-4s4.73,1.8,4.73,4v26c0,9.18-7.49,19.56-23.58,19.56C303.21,287.88,296.91,276.17,296.91,268.32Z"/><path class="cls-1" d="M384.34,282.82V246.43H364.87c-2.61,0-4.73-1.8-4.73-4.06s2.12-4,4.73-4h48.4c2.68,0,4.81,1.79,4.81,4s-2.13,4.06-4.81,4.06H393.88v36.39c0,2.2-2.13,4-4.81,4S384.34,285,384.34,282.82Z"/><path class="cls-1" d="M433.85,268.32v-26c0-2.19,2.13-4,4.73-4s4.81,1.8,4.81,4v25.95c0,3.66,2.29,11.58,14.35,11.58,11.35,0,14-7.25,14-11.51v-26c0-2.19,2.21-4,4.81-4s4.73,1.8,4.73,4v26c0,9.18-7.49,19.56-23.57,19.56C440.16,287.88,433.85,276.17,433.85,268.32Z"/><path class="cls-1" d="M499.45,282.82V264.93c0-2.6,1.73-4.06,4.81-4.06H529.4c4.26,0,7.49-2.53,7.49-7.32s-3.39-7.12-7.49-7.12H504.26c-3.08,0-4.81-1.47-4.81-4.06,0-2.2,2.12-4,4.73-4H529.4c8.6,0,17,5.19,17,15.17,0,7.78-5,12.31-10.48,14.24L544.07,281c1.18,1.93.23,4.39-2.05,5.39a5.24,5.24,0,0,1-6.47-1.73l-9.61-15.7H509v13.9c0,2.2-2.13,4-4.81,4S499.45,285,499.45,282.82Z"/><path class="cls-1" d="M569.38,238.38h37c2.6,0,4.73,1.79,4.73,4s-2.13,4.06-4.73,4.06h-37c-2.84,0-4.89-1.73-4.89-4.06S566.7,238.38,569.38,238.38Zm-4.81,44.44V265c0-2.39,2-4.12,4.89-4.12H596c2.61,0,4.73,1.79,4.73,4.06s-2.12,4-4.73,4H574.11v9.84h32.32c2.6,0,4.73,1.8,4.73,4.06s-2.13,4-4.73,4h-37C566.7,286.82,564.57,285,564.57,282.82Z"/><path class="cls-1" d="M658.47,262.46c0-14.1,13.95-25.41,30.66-25.41s30.67,11.24,30.67,25.41-13.8,25.42-30.67,25.42S658.47,276.64,658.47,262.46Zm30.66,17.37c11.59,0,21.13-7.65,21.13-17.37s-9.62-17.36-21.13-17.36S668,252.75,668,262.46,677.54,279.83,689.13,279.83Z"/><path class="cls-1" d="M740.38,238.38h37c2.61,0,4.73,1.79,4.73,4s-2.12,4.06-4.73,4.06h-37c-2.84,0-4.89-1.73-4.89-4.06S737.7,238.38,740.38,238.38Zm-4.81,44.44V265c0-2.39,2-4.12,4.89-4.12H767c2.6,0,4.73,1.79,4.73,4.06s-2.13,4-4.73,4H745.11v13.9c0,2.2-2.13,4-4.73,4S735.57,285,735.57,282.82Z"/><path class="cls-1" d="M834.28,238.38h37.05c2.6,0,4.73,1.79,4.73,4s-2.13,4.06-4.73,4.06h-37c-2.84,0-4.89-1.73-4.89-4.06S831.6,238.38,834.28,238.38Zm-4.81,44.44V265c0-2.39,2-4.12,4.89-4.12h26.57c2.6,0,4.73,1.79,4.73,4.06s-2.13,4-4.73,4H839v9.84h32.32c2.6,0,4.73,1.8,4.73,4.06s-2.13,4-4.73,4H834.28C831.6,286.82,829.47,285,829.47,282.82Z"/><path class="cls-1" d="M894.2,282.69V242.5a4.2,4.2,0,0,1,3.15-3.86,5.35,5.35,0,0,1,5.36,1.07l35,32.27V242.5c0-2.33,2.21-4.12,4.89-4.12s5,1.79,5,4.12v40.19a4.2,4.2,0,0,1-3.15,3.86,5.73,5.73,0,0,1-5.44-1.06L904.05,253v29.68c0,2.26-2.21,4.13-5,4.13S894.2,285,894.2,282.69Z"/><path class="cls-1" d="M970.51,238.38h37.06c2.6,0,4.73,1.79,4.73,4s-2.13,4.06-4.73,4.06h-37c-2.84,0-4.89-1.73-4.89-4.06S967.83,238.38,970.51,238.38Zm-4.81,44.44V265c0-2.39,2-4.12,4.89-4.12h26.57c2.6,0,4.73,1.79,4.73,4.06s-2.13,4-4.73,4H975.24v9.84h32.33c2.6,0,4.73,1.8,4.73,4.06s-2.13,4-4.73,4H970.51C967.83,286.82,965.7,285,965.7,282.82Z"/><path class="cls-1" d="M1030.43,282.82V264.93c0-2.6,1.74-4.06,4.81-4.06h25.15c4.26,0,7.49-2.53,7.49-7.32s-3.39-7.12-7.49-7.12h-25.15c-3.07,0-4.81-1.47-4.81-4.06,0-2.2,2.13-4,4.73-4h25.23c8.59,0,17,5.19,17,15.17,0,7.78-5,12.31-10.49,14.24l8.12,13.17c1.19,1.93.24,4.39-2,5.39a5.23,5.23,0,0,1-6.46-1.73l-9.62-15.7h-17v13.9c0,2.2-2.13,4-4.81,4S1030.43,285,1030.43,282.82Z"/><path class="cls-1" d="M1091.61,262.46c0-13.9,13.72-25.41,30.67-25.41a35.45,35.45,0,0,1,17.11,4.32c2.2,1.26,2.84,3.73,1.34,5.59a5.18,5.18,0,0,1-6.55,1.13,24.89,24.89,0,0,0-11.9-3c-11.51,0-21.13,7.65-21.13,17.36s9.54,17.37,21.13,17.37c9.38,0,16-5.12,17.58-11.18h-13.32c-2.61,0-4.73-1.8-4.73-4s2.12-4,4.73-4h18.52c2.53,0,4.65,1.66,4.73,3.86.63,12.44-11,23.35-27.51,23.35C1105.17,287.88,1091.61,276.3,1091.61,262.46Z"/><path class="cls-1" d="M1182.2,282.82V264.19l-20.1-19.09a3.58,3.58,0,0,1,.39-5.66,5.39,5.39,0,0,1,6.7.33l17.74,16.84,17.74-16.84a5.38,5.38,0,0,1,6.7-.33,3.58,3.58,0,0,1,.39,5.66l-20.1,19.09v18.63c0,2.2-2.13,4-4.73,4S1182.2,285,1182.2,282.82Z"/><path class="cls-2" d="M66.44,89.69q-7.95-10.51-15.88-21l57.89-7.59Z"/><path class="cls-2" d="M55.17,153.9q5.63-32.1,11.27-64.21l42-28.61Z"/><path class="cls-3" d="M108.45,61.08,50.56,68.67"/><path class="cls-3" d="M50.56,68.67q7.92,10.5,15.88,21"/><path class="cls-3" d="M108.45,61.08l-42,28.77"/><path class="cls-3" d="M55.17,153.9l53.28-92.82"/><path class="cls-3" d="M55.17,153.9q5.63-32.1,11.27-64.21"/><path class="cls-3" d="M108.45,61.08l-42,28.61"/><path class="cls-2" d="M63.12,91.1,5.23,98.8q21-14.53,42-29.07Q55.19,80.43,63.12,91.1Z"/><path class="cls-2" d="M47.24,69.73q-21,14.55-42,29.07L58.52,4.5Z"/><path class="cls-3" d="M5.23,98.8l57.89-7.7"/><path class="cls-3" d="M63.12,91.1Q55.2,80.41,47.24,69.73"/><path class="cls-3" d="M5.23,98.8l42-29.22"/><path class="cls-3" d="M58.52,4.5,5.23,98.8"/><path class="cls-3" d="M58.52,4.5,47.24,69.73"/><path class="cls-3" d="M5.23,98.8q21-14.53,42-29.07"/><line class="cls-4" x1="-0.04" y1="195.75" x2="1209.5" y2="198.86"/></svg>